<svg xmlns="http://www.w3.org/2000/svg" xmlns:xlink="http://www.w3.org/1999/xlink" width="2000" zoomAndPan="magnify" viewBox="0 0 1500 1499.999933" height="2000" preserveAspectRatio="xMidYMid meet" version="1.0"><defs><g/><clipPath id="d874d3112a"><path d="M 750 0 C 335.785156 0 0 335.785156 0 750 C 0 1164.214844 335.785156 1500 750 1500 C 1164.214844 1500 1500 1164.214844 1500 750 C 1500 335.785156 1164.214844 0 750 0 Z M 750 0 " clip-rule="nonzero"/></clipPath><clipPath id="cf5e349d24"><path d="M 0 0 L 1500 0 L 1500 1500 L 0 1500 Z M 0 0 " clip-rule="nonzero"/></clipPath><clipPath id="2c00f97b26"><path d="M 750 0 C 335.785156 0 0 335.785156 0 750 C 0 1164.214844 335.785156 1500 750 1500 C 1164.214844 1500 1500 1164.214844 1500 750 C 1500 335.785156 1164.214844 0 750 0 Z M 750 0 " clip-rule="nonzero"/></clipPath><clipPath id="b25d1eecfd"><rect x="0" width="1500" y="0" height="1500"/></clipPath><clipPath id="50142f0094"><path d="M 109.875 109.875 L 1390.125 109.875 L 1390.125 1390.125 L 109.875 1390.125 Z M 109.875 109.875 " clip-rule="nonzero"/></clipPath><clipPath id="5840e3d3d8"><path d="M 750 109.875 C 396.46875 109.875 109.875 396.46875 109.875 750 C 109.875 1103.53125 396.46875 1390.125 750 1390.125 C 1103.53125 1390.125 1390.125 1103.53125 1390.125 750 C 1390.125 396.46875 1103.53125 109.875 750 109.875 Z M 750 109.875 " clip-rule="nonzero"/></clipPath><clipPath id="e35d321a10"><rect x="0" width="1117" y="0" height="691"/></clipPath><clipPath id="047adab1db"><path d="M 403.863281 524.695312 L 1096.113281 524.695312 L 1096.113281 975.445312 L 403.863281 975.445312 Z M 403.863281 524.695312 " clip-rule="nonzero"/></clipPath></defs><g clip-path="url(#d874d3112a)"><g transform="matrix(1, 0, 0, 1, 0, 0.000000000000112861)"><g clip-path="url(#b25d1eecfd)"><g clip-path="url(#cf5e349d24)"><g clip-path="url(#2c00f97b26)"><rect x="-330" width="2160" fill="#0f3c86" height="2159.999904" y="-329.999985" fill-opacity="1"/></g></g></g></g></g><g clip-path="url(#50142f0094)"><g clip-path="url(#5840e3d3d8)"><path stroke-linecap="butt" transform="matrix(0.75, 0, 0, 0.75, 109.874966, 109.874913)" fill="none" stroke-linejoin="miter" d="M 853.500118 0.000116085 C 382.125078 0.000116085 0.0000449519 382.125149 0.0000449519 853.50019 C 0.0000449519 1324.87523 382.125078 1707.000263 853.500118 1707.000263 C 1324.875159 1707.000263 1707.000192 1324.87523 1707.000192 853.50019 C 1707.000192 382.125149 1324.875159 0.000116085 853.500118 0.000116085 Z M 853.500118 0.000116085 " stroke="#edf0f4" stroke-width="8" stroke-opacity="1" stroke-miterlimit="4"/></g></g><g fill="#edf0f4" fill-opacity="1"><g transform="translate(602.591755, 1260.850363)"><g><path d="M 7.59375 1.8125 L 9.5 -6.171875 L 37.09375 -18.78125 C 38.226562 -19.3125 39.507812 -19.992188 40.9375 -20.828125 C 42.375 -21.671875 43.691406 -22.722656 44.890625 -23.984375 C 46.097656 -25.253906 46.921875 -26.796875 47.359375 -28.609375 C 47.953125 -31.097656 47.421875 -33.191406 45.765625 -34.890625 C 44.117188 -36.597656 41.492188 -37.878906 37.890625 -38.734375 C 34.546875 -39.535156 31.222656 -39.804688 27.921875 -39.546875 C 24.628906 -39.285156 21.503906 -38.441406 18.546875 -37.015625 L 16.3125 -46.21875 C 19.789062 -47.789062 23.617188 -48.695312 27.796875 -48.9375 C 31.972656 -49.175781 36.316406 -48.757812 40.828125 -47.6875 C 45.285156 -46.625 48.960938 -45.101562 51.859375 -43.125 C 54.765625 -41.144531 56.773438 -38.800781 57.890625 -36.09375 C 59.015625 -33.394531 59.1875 -30.394531 58.40625 -27.09375 C 57.925781 -25.082031 57.15625 -23.265625 56.09375 -21.640625 C 55.039062 -20.015625 53.785156 -18.570312 52.328125 -17.3125 C 50.878906 -16.0625 49.332031 -14.972656 47.6875 -14.046875 C 46.050781 -13.128906 44.40625 -12.332031 42.75 -11.65625 L 24.109375 -3.484375 L 23.875 -3.796875 L 53.875 3.359375 L 51.734375 12.328125 Z M 7.59375 1.8125 "/></g></g></g><g fill="#edf0f4" fill-opacity="1"><g transform="translate(680.820433, 1277.757853)"><g><path d="M 29.0625 3.0625 C 23.820312 2.644531 19.429688 1.191406 15.890625 -1.296875 C 12.347656 -3.796875 9.78125 -7.195312 8.1875 -11.5 C 6.59375 -15.800781 6.03125 -20.992188 6.5 -27.078125 C 6.96875 -33.097656 8.328125 -38.128906 10.578125 -42.171875 C 12.828125 -46.222656 15.894531 -49.207031 19.78125 -51.125 C 23.664062 -53.050781 28.226562 -53.804688 33.46875 -53.390625 C 38.769531 -52.984375 43.1875 -51.53125 46.71875 -49.03125 C 50.257812 -46.53125 52.8125 -43.117188 54.375 -38.796875 C 55.945312 -34.484375 56.492188 -29.316406 56.015625 -23.296875 C 55.554688 -17.316406 54.203125 -12.285156 51.953125 -8.203125 C 49.703125 -4.117188 46.648438 -1.117188 42.796875 0.796875 C 38.941406 2.710938 34.363281 3.46875 29.0625 3.0625 Z M 29.78125 -6.046875 C 34.457031 -5.679688 38.070312 -6.992188 40.625 -9.984375 C 43.175781 -12.984375 44.703125 -17.703125 45.203125 -24.140625 C 45.703125 -30.472656 44.921875 -35.320312 42.859375 -38.6875 C 40.804688 -42.050781 37.441406 -43.914062 32.765625 -44.28125 C 28.097656 -44.644531 24.484375 -43.320312 21.921875 -40.3125 C 19.359375 -37.3125 17.828125 -32.59375 17.328125 -26.15625 C 16.828125 -19.769531 17.609375 -14.910156 19.671875 -11.578125 C 21.742188 -8.253906 25.113281 -6.410156 29.78125 -6.046875 Z M 29.78125 -6.046875 "/></g></g></g><g fill="#edf0f4" fill-opacity="1"><g transform="translate(760.726814, 1282.308709)"><g><path d="M 7.78125 -0.609375 L 7.140625 -8.78125 L 29.53125 -29.265625 C 30.457031 -30.128906 31.472656 -31.175781 32.578125 -32.40625 C 33.679688 -33.632812 34.609375 -35.035156 35.359375 -36.609375 C 36.117188 -38.191406 36.429688 -39.910156 36.296875 -41.765625 C 36.085938 -44.316406 34.9375 -46.148438 32.84375 -47.265625 C 30.75 -48.378906 27.863281 -48.789062 24.1875 -48.5 C 20.757812 -48.226562 17.515625 -47.460938 14.453125 -46.203125 C 11.390625 -44.953125 8.664062 -43.1875 6.28125 -40.90625 L 1.34375 -48.984375 C 4.175781 -51.554688 7.546875 -53.59375 11.453125 -55.09375 C 15.359375 -56.601562 19.617188 -57.539062 24.234375 -57.90625 C 28.804688 -58.257812 32.769531 -57.941406 36.125 -56.953125 C 39.488281 -55.960938 42.117188 -54.351562 44.015625 -52.125 C 45.921875 -49.894531 47.003906 -47.09375 47.265625 -43.71875 C 47.429688 -41.65625 47.257812 -39.6875 46.75 -37.8125 C 46.25 -35.945312 45.5 -34.191406 44.5 -32.546875 C 43.5 -30.898438 42.359375 -29.390625 41.078125 -28.015625 C 39.804688 -26.640625 38.484375 -25.375 37.109375 -24.21875 L 21.890625 -10.71875 L 21.5625 -10.921875 L 52.3125 -13.328125 L 53.03125 -4.140625 Z M 7.78125 -0.609375 "/></g></g></g><g fill="#edf0f4" fill-opacity="1"><g transform="translate(840.370124, 1274.392553)"><g><path d="M 30.65625 -6.5 C 25.394531 -5.238281 20.613281 -5.191406 16.3125 -6.359375 C 12.019531 -7.535156 8.390625 -9.859375 5.421875 -13.328125 C 2.453125 -16.804688 0.300781 -21.332031 -1.03125 -26.90625 C -2.5 -33.082031 -2.632812 -38.546875 -1.4375 -43.296875 C -0.238281 -48.046875 2.179688 -52.035156 5.828125 -55.265625 C 9.484375 -58.492188 14.25 -60.804688 20.125 -62.203125 C 22.65625 -62.804688 25.164062 -63.148438 27.65625 -63.234375 C 30.144531 -63.316406 32.519531 -63.144531 34.78125 -62.71875 C 37.050781 -62.300781 39.179688 -61.632812 41.171875 -60.71875 L 39.15625 -51.640625 C 36.457031 -52.867188 33.691406 -53.585938 30.859375 -53.796875 C 28.035156 -54.003906 25.15625 -53.757812 22.21875 -53.0625 C 19.425781 -52.394531 17.015625 -51.429688 14.984375 -50.171875 C 12.953125 -48.910156 11.347656 -47.378906 10.171875 -45.578125 C 8.992188 -43.773438 8.273438 -41.691406 8.015625 -39.328125 C 7.753906 -36.960938 7.96875 -34.335938 8.65625 -31.453125 L 9.65625 -27.28125 L 9.046875 -27.140625 C 9.015625 -29.484375 9.613281 -31.671875 10.84375 -33.703125 C 12.070312 -35.734375 13.847656 -37.492188 16.171875 -38.984375 C 18.492188 -40.472656 21.148438 -41.578125 24.140625 -42.296875 C 28.234375 -43.265625 31.984375 -43.394531 35.390625 -42.6875 C 38.796875 -41.976562 41.644531 -40.503906 43.9375 -38.265625 C 46.238281 -36.023438 47.796875 -33.207031 48.609375 -29.8125 C 49.441406 -26.3125 49.257812 -22.972656 48.0625 -19.796875 C 46.863281 -16.628906 44.773438 -13.882812 41.796875 -11.5625 C 38.828125 -9.25 35.113281 -7.5625 30.65625 -6.5 Z M 28.390625 -15.03125 C 30.921875 -15.632812 33.003906 -16.519531 34.640625 -17.6875 C 36.285156 -18.851562 37.460938 -20.257812 38.171875 -21.90625 C 38.878906 -23.550781 39.019531 -25.285156 38.59375 -27.109375 C 38.15625 -28.929688 37.253906 -30.382812 35.890625 -31.46875 C 34.523438 -32.5625 32.84375 -33.269531 30.84375 -33.59375 C 28.851562 -33.925781 26.59375 -33.789062 24.0625 -33.1875 C 21.476562 -32.570312 19.347656 -31.675781 17.671875 -30.5 C 15.992188 -29.332031 14.796875 -27.941406 14.078125 -26.328125 C 13.367188 -24.710938 13.234375 -22.992188 13.671875 -21.171875 C 14.097656 -19.347656 14.984375 -17.859375 16.328125 -16.703125 C 17.679688 -15.546875 19.394531 -14.828125 21.46875 -14.546875 C 23.550781 -14.265625 25.859375 -14.425781 28.390625 -15.03125 Z M 28.390625 -15.03125 "/></g></g></g><g transform="matrix(1, 0, 0, 1, 193, 202)"><g clip-path="url(#e35d321a10)"><g fill="#edf0f4" fill-opacity="1"><g transform="translate(86.557939, 676.711798)"><g><path d="M -1.515625 -8.140625 L -55.640625 1.9375 L -61.25 -28.234375 C -62.144531 -33.046875 -62.25 -37.222656 -61.5625 -40.765625 C -60.875 -44.316406 -59.421875 -47.179688 -57.203125 -49.359375 C -54.992188 -51.546875 -52.023438 -52.988281 -48.296875 -53.6875 C -44.609375 -54.375 -41.3125 -54.097656 -38.40625 -52.859375 C -35.5 -51.628906 -33.070312 -49.488281 -31.125 -46.4375 C -29.175781 -43.382812 -27.753906 -39.453125 -26.859375 -34.640625 L -23.375 -15.90625 L -3.640625 -19.578125 Z M -32.140625 -14.28125 L -35.359375 -31.5625 C -36.148438 -35.800781 -37.410156 -38.804688 -39.140625 -40.578125 C -40.867188 -42.347656 -43.21875 -42.957031 -46.1875 -42.40625 C -49.144531 -41.851562 -51.082031 -40.46875 -52 -38.25 C -52.914062 -36.039062 -52.96875 -32.765625 -52.15625 -28.421875 L -48.9375 -11.140625 Z M -32.140625 -14.28125 "/></g></g></g><g fill="#edf0f4" fill-opacity="1"><g transform="translate(73.090112, 598.214164)"><g><path d="M -0.125 -8.28125 L -55.1875 -7.40625 L -55.671875 -37.875 C -55.796875 -45.257812 -54.492188 -50.925781 -51.765625 -54.875 C -49.046875 -58.820312 -45.035156 -60.835938 -39.734375 -60.921875 C -36.296875 -60.972656 -33.375 -60.171875 -30.96875 -58.515625 C -28.570312 -56.867188 -26.6875 -54.46875 -25.3125 -51.3125 C -23.9375 -48.15625 -23.109375 -44.335938 -22.828125 -39.859375 L -23.546875 -40.5625 L -23.5 -43.375 C -23.4375 -45.507812 -22.9375 -47.429688 -22 -49.140625 C -21.0625 -50.847656 -19.585938 -52.445312 -17.578125 -53.9375 L -1.046875 -65.828125 L -0.84375 -52.953125 L -17.21875 -41.4375 C -18.351562 -40.632812 -19.238281 -39.828125 -19.875 -39.015625 C -20.519531 -38.203125 -20.972656 -37.179688 -21.234375 -35.953125 C -21.503906 -34.734375 -21.625 -33.132812 -21.59375 -31.15625 L -21.40625 -19.59375 L -0.3125 -19.921875 Z M -29.921875 -19.453125 L -30.203125 -37.109375 C -30.273438 -41.523438 -31.03125 -44.710938 -32.46875 -46.671875 C -33.90625 -48.628906 -36.03125 -49.582031 -38.84375 -49.53125 C -41.59375 -49.488281 -43.601562 -48.453125 -44.875 -46.421875 C -46.144531 -44.398438 -46.742188 -41.15625 -46.671875 -36.6875 L -46.390625 -19.1875 Z M -29.921875 -19.453125 "/></g></g></g><g fill="#edf0f4" fill-opacity="1"><g transform="translate(72.677878, 515.524978)"><g><path d="M 7.109375 -38.09375 C 6.296875 -33.164062 4.921875 -28.828125 2.984375 -25.078125 C 1.046875 -21.335938 -1.378906 -18.234375 -4.296875 -15.765625 C -7.222656 -13.296875 -10.535156 -11.585938 -14.234375 -10.640625 C -17.929688 -9.691406 -21.910156 -9.570312 -26.171875 -10.28125 C -30.441406 -10.988281 -34.148438 -12.394531 -37.296875 -14.5 C -40.453125 -16.613281 -43.023438 -19.300781 -45.015625 -22.5625 C -47.003906 -25.820312 -48.328125 -29.550781 -48.984375 -33.75 C -49.640625 -37.957031 -49.554688 -42.519531 -48.734375 -47.4375 C -47.921875 -52.320312 -46.515625 -56.628906 -44.515625 -60.359375 C -42.523438 -64.097656 -40.097656 -67.179688 -37.234375 -69.609375 C -34.378906 -72.035156 -31.101562 -73.742188 -27.40625 -74.734375 C -23.71875 -75.734375 -19.765625 -75.882812 -15.546875 -75.1875 C -11.285156 -74.476562 -7.5625 -73.066406 -4.375 -70.953125 C -1.1875 -68.835938 1.398438 -66.148438 3.390625 -62.890625 C 5.390625 -59.640625 6.710938 -55.925781 7.359375 -51.75 C 8.015625 -47.570312 7.929688 -43.019531 7.109375 -38.09375 Z M -2.359375 -39.671875 C -1.648438 -43.929688 -1.785156 -47.710938 -2.765625 -51.015625 C -3.742188 -54.316406 -5.484375 -57.03125 -7.984375 -59.15625 C -10.484375 -61.289062 -13.632812 -62.671875 -17.4375 -63.296875 C -21.289062 -63.941406 -24.738281 -63.671875 -27.78125 -62.484375 C -30.832031 -61.304688 -33.332031 -59.296875 -35.28125 -56.453125 C -37.226562 -53.609375 -38.554688 -50.054688 -39.265625 -45.796875 C -39.972656 -41.535156 -39.847656 -37.753906 -38.890625 -34.453125 C -37.929688 -31.148438 -36.203125 -28.4375 -33.703125 -26.3125 C -31.210938 -24.1875 -28.039062 -22.800781 -24.1875 -22.15625 C -20.332031 -21.519531 -16.894531 -21.789062 -13.875 -22.96875 C -10.863281 -24.15625 -8.367188 -26.171875 -6.390625 -29.015625 C -4.410156 -31.859375 -3.066406 -35.410156 -2.359375 -39.671875 Z M -2.359375 -39.671875 "/></g></g></g><g fill="#edf0f4" fill-opacity="1"><g transform="translate(89.405076, 425.204513)"><g><path d="M 2.8125 -7.796875 L -49 -26.453125 L -38.671875 -55.171875 C -36.253906 -61.890625 -33.234375 -66.65625 -29.609375 -69.46875 C -25.984375 -72.289062 -22.09375 -72.953125 -17.9375 -71.453125 C -14.613281 -70.265625 -12.304688 -68.21875 -11.015625 -65.3125 C -9.734375 -62.414062 -9.453125 -58.910156 -10.171875 -54.796875 L -10.75 -55 C -9.382812 -57.71875 -7.78125 -59.9375 -5.9375 -61.65625 C -4.101562 -63.375 -2.117188 -64.472656 0.015625 -64.953125 C 2.148438 -65.429688 4.46875 -65.21875 6.96875 -64.3125 C 9.957031 -63.238281 12.222656 -61.46875 13.765625 -59 C 15.316406 -56.539062 16.078125 -53.5 16.046875 -49.875 C 16.015625 -46.257812 15.171875 -42.148438 13.515625 -37.546875 Z M -1.515625 -21.390625 L 5.0625 -39.671875 C 5.414062 -40.648438 5.734375 -41.6875 6.015625 -42.78125 C 6.296875 -43.875 6.5 -44.976562 6.625 -46.09375 C 6.75 -47.207031 6.691406 -48.273438 6.453125 -49.296875 C 6.210938 -50.328125 5.75 -51.226562 5.0625 -52 C 4.375 -52.78125 3.414062 -53.394531 2.1875 -53.84375 C 0.8125 -54.332031 -0.367188 -54.492188 -1.359375 -54.328125 C -2.359375 -54.160156 -3.265625 -53.75 -4.078125 -53.09375 C -4.898438 -52.445312 -5.601562 -51.660156 -6.1875 -50.734375 C -6.769531 -49.804688 -7.273438 -48.828125 -7.703125 -47.796875 C -8.128906 -46.765625 -8.507812 -45.785156 -8.84375 -44.859375 L -15.484375 -26.421875 Z M -23.71875 -29.375 L -17.625 -46.28125 C -16.1875 -50.289062 -15.671875 -53.378906 -16.078125 -55.546875 C -16.484375 -57.710938 -17.859375 -59.21875 -20.203125 -60.0625 C -22.453125 -60.875 -24.4375 -60.582031 -26.15625 -59.1875 C -27.882812 -57.789062 -29.476562 -55.0625 -30.9375 -51 L -37 -34.171875 Z M -23.71875 -29.375 "/></g></g></g><g fill="#edf0f4" fill-opacity="1"><g transform="translate(119.249599, 347.271093)"><g><path d="M 4 -7.25 L -44.203125 -33.875 L -38.578125 -44.0625 L 1.21875 -22.078125 L 17.34375 -51.265625 L 25.75 -46.625 Z M 4 -7.25 "/></g></g></g><g fill="#edf0f4" fill-opacity="1"><g transform="translate(154.150535, 286.068773)"><g><path d="M 5.046875 -6.5625 L -38.640625 -40.078125 L -10.890625 -76.265625 L -3.703125 -70.75 L -24.5625 -43.5625 L -13.84375 -35.34375 L 5.453125 -60.484375 L 12.640625 -54.96875 L -6.65625 -29.828125 L 4.75 -21.078125 L 25.609375 -48.265625 L 32.796875 -42.75 Z M 5.046875 -6.5625 "/></g></g></g><g fill="#edf0f4" fill-opacity="1"><g transform="translate(199.273316, 227.403225)"><g><path d="M 6.265625 -5.65625 L -30.671875 -46.5 L -22.328125 -54.046875 L 20.546875 -43.65625 L 19.046875 -42.296875 L 12.828125 -85.84375 L 21.21875 -93.4375 L 58.15625 -52.59375 L 50.109375 -45.3125 L 23.234375 -75.03125 L 23.984375 -75.71875 L 28.984375 -37.8125 L 23.828125 -33.140625 L -13.484375 -41.921875 L -12.609375 -42.703125 L 14.3125 -12.9375 Z M 6.265625 -5.65625 "/></g></g></g><g fill="#edf0f4" fill-opacity="1"><g transform="translate(275.531563, 161.177515)"><g><path d="M 0.796875 -0.484375 L -1.328125 -63.421875 L 7.5 -68.71875 L 61.953125 -37.171875 L 51.640625 -30.984375 L 36.609375 -39.921875 L 42.984375 -39.640625 L 7.421875 -18.3125 L 10.171875 -24.0625 L 10.984375 -6.59375 Z M 8.390625 -56.765625 L 9.9375 -27.1875 L 6.125 -27.90625 L 35.125 -45.296875 L 33.96875 -41.609375 L 8.59375 -56.875 Z M 8.390625 -56.765625 "/></g></g></g><g fill="#edf0f4" fill-opacity="1"><g transform="translate(351.680768, 117.479994)"><g><path d="M 30.078125 -10.8125 C 26.773438 -9.53125 23.46875 -8.515625 20.15625 -7.765625 C 16.84375 -7.015625 13.671875 -6.582031 10.640625 -6.46875 C 7.617188 -6.351562 4.832031 -6.554688 2.28125 -7.078125 L 2.703125 -16.796875 C 5.566406 -16.347656 8.304688 -16.15625 10.921875 -16.21875 C 13.546875 -16.28125 16.203125 -16.625 18.890625 -17.25 C 21.585938 -17.875 24.367188 -18.742188 27.234375 -19.859375 C 31.546875 -21.523438 34.691406 -23.34375 36.671875 -25.3125 C 38.648438 -27.28125 39.222656 -29.332031 38.390625 -31.46875 C 37.847656 -32.875 37.070312 -33.800781 36.0625 -34.25 C 35.050781 -34.695312 33.78125 -34.832031 32.25 -34.65625 C 30.71875 -34.488281 28.941406 -34.148438 26.921875 -33.640625 L 14.140625 -30.53125 C 8.128906 -29.039062 3.269531 -28.972656 -0.4375 -30.328125 C -4.144531 -31.679688 -6.78125 -34.367188 -8.34375 -38.390625 C -9.625 -41.691406 -9.691406 -44.929688 -8.546875 -48.109375 C -7.410156 -51.296875 -5.238281 -54.234375 -2.03125 -56.921875 C 1.164062 -59.609375 5.210938 -61.90625 10.109375 -63.8125 C 13.171875 -65 16.1875 -65.890625 19.15625 -66.484375 C 22.132812 -67.078125 24.972656 -67.347656 27.671875 -67.296875 C 30.378906 -67.253906 32.898438 -66.878906 35.234375 -66.171875 L 34.640625 -56.71875 C 31.097656 -57.632812 27.617188 -57.929688 24.203125 -57.609375 C 20.785156 -57.296875 17.0625 -56.359375 13.03125 -54.796875 C 10.257812 -53.722656 7.957031 -52.550781 6.125 -51.28125 C 4.300781 -50.019531 3.050781 -48.710938 2.375 -47.359375 C 1.707031 -46.003906 1.644531 -44.625 2.1875 -43.21875 C 2.914062 -41.332031 4.179688 -40.253906 5.984375 -39.984375 C 7.796875 -39.710938 10.347656 -39.929688 13.640625 -40.640625 L 25.6875 -43.484375 C 31.863281 -44.972656 36.90625 -45.144531 40.8125 -44 C 44.726562 -42.863281 47.484375 -40.234375 49.078125 -36.109375 C 50.328125 -32.898438 50.398438 -29.726562 49.296875 -26.59375 C 48.191406 -23.457031 45.992188 -20.539062 42.703125 -17.84375 C 39.421875 -15.144531 35.210938 -12.800781 30.078125 -10.8125 Z M 30.078125 -10.8125 "/></g></g></g><g fill="#edf0f4" fill-opacity="1"><g transform="translate(424.994151, 91.280888)"><g/></g></g><g fill="#edf0f4" fill-opacity="1"><g transform="translate(465.377583, 80.519615)"><g><path d="M 8.234375 -0.90625 L 2.21875 -55.640625 L 28.234375 -58.5 C 35.722656 -59.320312 42.132812 -58.976562 47.46875 -57.46875 C 52.800781 -55.957031 56.984375 -53.3125 60.015625 -49.53125 C 63.046875 -45.757812 64.890625 -40.894531 65.546875 -34.9375 C 66.203125 -28.988281 65.445312 -23.828125 63.28125 -19.453125 C 61.113281 -15.078125 57.601562 -11.570312 52.75 -8.9375 C 47.90625 -6.3125 41.738281 -4.585938 34.25 -3.765625 Z M 18.765625 -11.484375 L 32.515625 -13 C 40.472656 -13.875 46.144531 -15.953125 49.53125 -19.234375 C 52.925781 -22.515625 54.273438 -27.3125 53.578125 -33.625 C 52.890625 -39.894531 50.535156 -44.257812 46.515625 -46.71875 C 42.492188 -49.175781 36.503906 -49.96875 28.546875 -49.09375 L 14.796875 -47.578125 Z M 18.765625 -11.484375 "/></g></g></g><g fill="#edf0f4" fill-opacity="1"><g transform="translate(554.472579, 72.622732)"><g><path d="M 8.265625 0.5 L 11.546875 -54.46875 L 57.078125 -51.75 L 56.546875 -42.703125 L 22.328125 -44.75 L 21.515625 -31.265625 L 53.15625 -29.375 L 52.609375 -20.328125 L 20.96875 -22.21875 L 20.125 -7.875 L 54.34375 -5.828125 L 53.796875 3.21875 Z M 8.265625 0.5 "/></g></g></g><g fill="#edf0f4" fill-opacity="1"><g transform="translate(629.069271, 79.012402)"><g/></g></g><g fill="#edf0f4" fill-opacity="1"><g transform="translate(670.271703, 85.808474)"><g><path d="M 36.53125 12.90625 C 31.789062 11.332031 27.722656 9.296875 24.328125 6.796875 C 20.929688 4.304688 18.234375 1.429688 16.234375 -1.828125 C 14.242188 -5.097656 13.066406 -8.628906 12.703125 -12.421875 C 12.335938 -16.210938 12.835938 -20.160156 14.203125 -24.265625 C 15.554688 -28.367188 17.519531 -31.816406 20.09375 -34.609375 C 22.664062 -37.398438 25.71875 -39.53125 29.25 -41 C 32.78125 -42.46875 36.671875 -43.195312 40.921875 -43.1875 C 45.171875 -43.175781 49.660156 -42.390625 54.390625 -40.828125 C 59.085938 -39.273438 63.125 -37.222656 66.5 -34.671875 C 69.882812 -32.128906 72.554688 -29.257812 74.515625 -26.0625 C 76.472656 -22.863281 77.660156 -19.359375 78.078125 -15.546875 C 78.492188 -11.742188 78.03125 -7.8125 76.6875 -3.75 C 75.332031 0.351562 73.363281 3.816406 70.78125 6.640625 C 68.195312 9.460938 65.140625 11.601562 61.609375 13.0625 C 58.078125 14.519531 54.195312 15.25 49.96875 15.25 C 45.75 15.25 41.269531 14.46875 36.53125 12.90625 Z M 39.546875 3.796875 C 43.648438 5.148438 47.410156 5.59375 50.828125 5.125 C 54.242188 4.664062 57.195312 3.367188 59.6875 1.234375 C 62.175781 -0.898438 64.023438 -3.800781 65.234375 -7.46875 C 66.460938 -11.175781 66.722656 -14.625 66.015625 -17.8125 C 65.316406 -21 63.710938 -23.773438 61.203125 -26.140625 C 58.703125 -28.503906 55.398438 -30.363281 51.296875 -31.71875 C 47.191406 -33.070312 43.4375 -33.53125 40.03125 -33.09375 C 36.632812 -32.664062 33.691406 -31.382812 31.203125 -29.25 C 28.710938 -27.113281 26.851562 -24.191406 25.625 -20.484375 C 24.394531 -16.773438 24.132812 -13.335938 24.84375 -10.171875 C 25.550781 -7.003906 27.148438 -4.222656 29.640625 -1.828125 C 32.140625 0.566406 35.441406 2.441406 39.546875 3.796875 Z M 39.546875 3.796875 "/></g></g></g><g fill="#edf0f4" fill-opacity="1"><g transform="translate(756.929004, 116.550822)"><g><path d="M 21.8125 11.71875 L 43.390625 -28.453125 L 22.40625 -39.734375 L 26.890625 -48.0625 L 79.171875 -19.96875 L 74.6875 -11.640625 L 53.71875 -22.90625 L 32.140625 17.265625 Z M 21.8125 11.71875 "/></g></g></g><g fill="#edf0f4" fill-opacity="1"><g transform="translate(823.381323, 154.502343)"><g><path d="M 6.75 4.796875 L 38.625 -40.109375 L 48.125 -33.375 L 16.25 11.53125 Z M 6.75 4.796875 "/></g></g></g><g fill="#edf0f4" fill-opacity="1"><g transform="translate(859.273844, 178.655689)"><g><path d="M 6.078125 5.859375 L 44.296875 -33.78125 L 52.390625 -25.96875 L 44.953125 17.5 L 43.484375 16.09375 L 86.515625 6.921875 L 94.671875 14.796875 L 56.453125 54.4375 L 48.640625 46.890625 L 76.453125 18.046875 L 77.1875 18.75 L 39.703125 26.34375 L 34.703125 21.515625 L 40.90625 -16.3125 L 41.75 -15.5 L 13.890625 13.390625 Z M 6.078125 5.859375 "/></g></g></g><g fill="#edf0f4" fill-opacity="1"><g transform="translate(930.101189, 251.555506)"><g><path d="M 5.03125 6.578125 L 48.734375 -26.90625 L 55.8125 -17.671875 L 12.109375 15.8125 Z M 5.03125 6.578125 "/></g></g></g><g fill="#edf0f4" fill-opacity="1"><g transform="translate(956.621249, 286.192813)"><g><path d="M 2.375 4.046875 L 9.3125 -0.03125 L 64.625 12.546875 L 61.875 14.640625 L 41.96875 -19.21875 L 49.84375 -23.84375 L 75.5625 19.921875 L 68.625 23.984375 L 13.375 11.359375 L 16.0625 9.3125 L 36.640625 44.328125 L 28.765625 48.953125 Z M 2.375 4.046875 "/></g></g></g><g fill="#edf0f4" fill-opacity="1"><g transform="translate(993.57215, 350.316127)"><g><path d="M 0.328125 0.875 L 62.65625 9.828125 L 66.328125 19.453125 L 25.71875 67.515625 L 21.4375 56.28125 L 32.859375 43.046875 L 31.46875 49.265625 L 16.71875 10.515625 L 21.890625 14.234375 L 4.5625 11.96875 Z M 54.40625 18.21875 L 25.03125 14.546875 L 26.40625 10.9375 L 38.4375 42.53125 L 35 40.734375 L 54.5 18.4375 Z M 54.40625 18.21875 "/></g></g></g><g fill="#edf0f4" fill-opacity="1"><g transform="translate(1023.371471, 432.824969)"><g><path d="M 6.53125 38.34375 C 5.28125 31.800781 5.300781 25.875 6.59375 20.5625 C 7.882812 15.257812 10.359375 10.878906 14.015625 7.421875 C 17.679688 3.960938 22.378906 1.6875 28.109375 0.59375 C 33.835938 -0.507812 39.039062 -0.113281 43.71875 1.78125 C 48.394531 3.675781 52.320312 6.835938 55.5 11.265625 C 58.675781 15.691406 60.894531 21.203125 62.15625 27.796875 C 63.082031 32.597656 63.347656 37.085938 62.953125 41.265625 C 62.554688 45.453125 61.453125 49.15625 59.640625 52.375 L 50.25 49.9375 C 51.75 46.6875 52.691406 43.488281 53.078125 40.34375 C 53.460938 37.195312 53.300781 33.78125 52.59375 30.09375 C 51.332031 23.507812 48.785156 18.660156 44.953125 15.546875 C 41.128906 12.429688 36.28125 11.4375 30.40625 12.5625 C 24.570312 13.675781 20.445312 16.375 18.03125 20.65625 C 15.613281 24.9375 15.039062 30.394531 16.3125 37.03125 C 17.019531 40.71875 18.125 43.953125 19.625 46.734375 C 21.132812 49.515625 23.191406 52.144531 25.796875 54.625 L 17.984375 60.34375 C 15.148438 58.007812 12.765625 54.957031 10.828125 51.1875 C 8.890625 47.425781 7.457031 43.144531 6.53125 38.34375 Z M -7.890625 41.515625 C -8.234375 39.722656 -8.414062 37.925781 -8.4375 36.125 C -8.457031 34.332031 -8.300781 32.789062 -7.96875 31.5 L -3.03125 32.390625 C -3.238281 33.804688 -3.363281 35.101562 -3.40625 36.28125 C -3.445312 37.457031 -3.316406 38.835938 -3.015625 40.421875 C -2.660156 42.265625 -2.222656 43.5625 -1.703125 44.3125 C -1.191406 45.0625 -0.578125 45.363281 0.140625 45.21875 C 0.796875 45.09375 1.1875 44.675781 1.3125 43.96875 C 1.445312 43.257812 1.390625 42.265625 1.140625 40.984375 C 1.023438 40.367188 0.867188 39.679688 0.671875 38.921875 C 0.484375 38.171875 0.207031 37.398438 -0.15625 36.609375 L 1.140625 34.703125 L 8.15625 34.390625 L 9.28125 40.21875 L 3.03125 40.453125 L 3.609375 37.5625 C 4.085938 38.488281 4.457031 39.363281 4.71875 40.1875 C 4.988281 41.007812 5.210938 41.878906 5.390625 42.796875 C 5.710938 44.484375 5.785156 45.976562 5.609375 47.28125 C 5.441406 48.59375 4.988281 49.660156 4.25 50.484375 C 3.507812 51.316406 2.5 51.851562 1.21875 52.09375 C -0.320312 52.382812 -1.675781 52.164062 -2.84375 51.4375 C -4.019531 50.71875 -5.035156 49.507812 -5.890625 47.8125 C -6.742188 46.125 -7.410156 44.023438 -7.890625 41.515625 Z M -7.890625 41.515625 "/></g></g></g><g fill="#edf0f4" fill-opacity="1"><g transform="translate(1037.676559, 513.111547)"><g><path d="M 0.015625 0.9375 L 55.5 30.71875 L 55.640625 41.015625 L 1 72.25 L 0.828125 60.21875 L 16.109375 51.71875 L 12.671875 57.078125 L 12.09375 15.609375 L 15.6875 20.875 L 0.171875 12.8125 Z M 44.859375 35.796875 L 18.515625 22.25 L 21.046875 19.328125 L 21.515625 53.140625 L 18.90625 50.28125 L 44.859375 36.03125 Z M 60.4375 20.8125 L 60.65625 14.3125 C 64.363281 14.570312 67.378906 15.789062 69.703125 17.96875 C 72.023438 20.15625 73.207031 22.96875 73.25 26.40625 C 73.28125 28.332031 72.953125 30.160156 72.265625 31.890625 C 71.585938 33.617188 70.972656 35.21875 70.421875 36.6875 C 69.816406 38.101562 69.273438 39.476562 68.796875 40.8125 C 68.328125 42.144531 68.097656 43.410156 68.109375 44.609375 C 68.140625 46.273438 68.664062 47.609375 69.6875 48.609375 C 70.71875 49.609375 72.117188 50.253906 73.890625 50.546875 L 73.6875 57.109375 C 69.925781 56.898438 66.894531 55.71875 64.59375 53.5625 C 62.300781 51.40625 61.132812 48.582031 61.09375 45.09375 C 61.0625 43.164062 61.394531 41.296875 62.09375 39.484375 C 62.800781 37.679688 63.410156 36.128906 63.921875 34.828125 C 64.472656 33.515625 65 32.148438 65.5 30.734375 C 66 29.328125 66.242188 28 66.234375 26.75 C 66.203125 25.132812 65.6875 23.835938 64.6875 22.859375 C 63.6875 21.878906 62.269531 21.195312 60.4375 20.8125 Z M 60.4375 20.8125 "/></g></g></g><g fill="#edf0f4" fill-opacity="1"><g transform="translate(1037.778538, 600.696768)"><g><path d="M -7.390625 38.046875 C -6.535156 33.117188 -5.125 28.789062 -3.15625 25.0625 C -1.1875 21.332031 1.265625 18.238281 4.203125 15.78125 C 7.140625 13.332031 10.457031 11.648438 14.15625 10.734375 C 17.851562 9.816406 21.832031 9.726562 26.09375 10.46875 C 30.351562 11.195312 34.050781 12.628906 37.1875 14.765625 C 40.332031 16.898438 42.890625 19.601562 44.859375 22.875 C 46.828125 26.15625 48.117188 29.894531 48.734375 34.09375 C 49.359375 38.300781 49.242188 42.859375 48.390625 47.765625 C 47.546875 52.648438 46.113281 56.953125 44.09375 60.671875 C 42.070312 64.390625 39.625 67.453125 36.75 69.859375 C 33.875 72.273438 30.582031 73.96875 26.875 74.9375 C 23.175781 75.90625 19.222656 76.023438 15.015625 75.296875 C 10.753906 74.554688 7.035156 73.117188 3.859375 70.984375 C 0.691406 68.847656 -1.875 66.140625 -3.84375 62.859375 C -5.8125 59.585938 -7.101562 55.863281 -7.71875 51.6875 C -8.34375 47.507812 -8.234375 42.960938 -7.390625 38.046875 Z M 2.078125 39.6875 C 1.347656 43.925781 1.457031 47.703125 2.40625 51.015625 C 3.363281 54.335938 5.085938 57.070312 7.578125 59.21875 C 10.066406 61.363281 13.207031 62.765625 17 63.421875 C 20.851562 64.085938 24.300781 63.84375 27.34375 62.6875 C 30.394531 61.53125 32.90625 59.53125 34.875 56.6875 C 36.851562 53.851562 38.207031 50.316406 38.9375 46.078125 C 39.675781 41.816406 39.578125 38.03125 38.640625 34.71875 C 37.710938 31.414062 36.007812 28.691406 33.53125 26.546875 C 31.050781 24.398438 27.882812 22.992188 24.03125 22.328125 C 20.1875 21.660156 16.75 21.90625 13.71875 23.0625 C 10.695312 24.226562 8.1875 26.222656 6.1875 29.046875 C 4.1875 31.878906 2.816406 35.425781 2.078125 39.6875 Z M 2.078125 39.6875 "/></g></g></g></g></g><path fill="#0f3c86" d="M 409.359375 530.230469 L 409.359375 969.761719 L 1090.632812 969.761719 L 1090.632812 530.230469 Z M 409.359375 530.230469 " fill-opacity="1" fill-rule="nonzero"/><path fill="#e3edfe" d="M 942.730469 744.0625 C 941.136719 749.996094 939.542969 755.929688 937.949219 761.863281 C 934.980469 769.058594 928.003906 773.730469 920.3125 773.730469 C 912.621094 773.730469 905.644531 769.058594 902.675781 761.863281 C 899.765625 755.929688 896.851562 749.996094 893.886719 744.0625 Z M 942.730469 744.0625 " fill-opacity="1" fill-rule="nonzero"/><path fill="#e3edfe" d="M 444.574219 565.886719 L 1055.414062 565.886719 L 1055.414062 934.105469 L 444.574219 934.105469 Z M 444.574219 565.886719 " fill-opacity="1" fill-rule="nonzero"/><path fill="#0f3c86" d="M 444.574219 565.886719 L 444.574219 934.105469 L 409.359375 934.105469 L 409.359375 530.230469 Z M 444.574219 565.886719 " fill-opacity="1" fill-rule="nonzero"/><path fill="#0f3c86" d="M 1090.632812 530.230469 L 1090.632812 934.105469 L 1055.414062 934.105469 L 1055.414062 565.886719 Z M 1090.632812 530.230469 " fill-opacity="1" fill-rule="nonzero"/><path fill="#0f3c86" d="M 409.359375 934.105469 L 1090.632812 934.105469 L 1090.632812 969.761719 L 409.359375 969.761719 Z M 409.359375 934.105469 " fill-opacity="1" fill-rule="nonzero"/><path fill="#0f3c86" d="M 1090.632812 530.230469 L 1055.414062 565.886719 L 444.574219 565.886719 L 409.359375 530.230469 Z M 1090.632812 530.230469 " fill-opacity="1" fill-rule="nonzero"/><g clip-path="url(#047adab1db)"><path fill="#0c2443" d="M 1095.703125 528.121094 C 1095.421875 527.445312 1095.011719 526.839844 1094.5 526.335938 C 1094.5 526.335938 1094.5 526.328125 1094.492188 526.324219 C 1094.421875 526.253906 1094.324219 526.230469 1094.246094 526.164062 C 1093.785156 525.757812 1093.285156 525.394531 1092.707031 525.160156 C 1092.207031 524.957031 1091.679688 524.894531 1091.152344 524.84375 C 1090.972656 524.824219 1090.816406 524.734375 1090.632812 524.734375 L 409.359375 524.734375 C 409.171875 524.734375 409.015625 524.824219 408.835938 524.839844 C 408.308594 524.890625 407.78125 524.949219 407.28125 525.152344 C 406.703125 525.390625 406.203125 525.753906 405.742188 526.160156 C 405.664062 526.230469 405.566406 526.253906 405.496094 526.324219 C 405.496094 526.324219 405.488281 526.328125 405.488281 526.335938 C 404.980469 526.839844 404.574219 527.445312 404.292969 528.121094 C 404.011719 528.789062 403.867188 529.5 403.867188 530.214844 C 403.867188 530.21875 403.863281 530.222656 403.863281 530.230469 L 403.863281 969.761719 C 403.863281 972.800781 406.320312 975.253906 409.359375 975.253906 L 1090.632812 975.253906 C 1093.667969 975.253906 1096.125 972.800781 1096.125 969.761719 L 1096.125 530.230469 C 1096.125 530.222656 1096.125 530.21875 1096.125 530.214844 C 1096.121094 529.5 1095.976562 528.789062 1095.703125 528.121094 Z M 1085.136719 928.632812 L 1060.886719 928.632812 L 1060.886719 568.121094 L 1085.136719 543.597656 Z M 414.851562 928.632812 L 414.851562 543.597656 L 439.101562 568.121094 L 439.101562 928.632812 Z M 1053.101562 560.371094 L 446.886719 560.371094 L 422.515625 535.722656 L 1077.472656 535.722656 Z M 450.089844 571.359375 L 1049.898438 571.359375 L 1049.898438 928.625 L 450.089844 928.625 Z M 414.851562 964.265625 L 414.851562 939.621094 L 1085.136719 939.621094 L 1085.136719 964.265625 Z M 414.851562 964.265625 " fill-opacity="1" fill-rule="nonzero"/></g><path fill="#0c2443" d="M 509.203125 696.09375 C 509.5 696.09375 509.796875 696.070312 510.097656 696.015625 C 512.328125 695.652344 514.105469 693.949219 514.574219 691.734375 L 531.265625 612.933594 L 644.277344 612.933594 C 647.316406 612.933594 649.769531 610.476562 649.769531 607.4375 C 649.769531 604.402344 647.316406 601.945312 644.277344 601.945312 L 526.8125 601.945312 C 524.210938 601.945312 521.972656 603.761719 521.433594 606.300781 L 506.734375 675.6875 L 496.300781 658.09375 C 494.746094 655.484375 491.378906 654.621094 488.769531 656.171875 C 486.160156 657.722656 485.304688 661.09375 486.847656 663.703125 L 504.46875 693.398438 C 505.476562 695.09375 507.28125 696.09375 509.203125 696.09375 Z M 509.203125 696.09375 " fill-opacity="1" fill-rule="nonzero"/><path fill="#0c2443" d="M 564.066406 676.6875 C 565.136719 677.746094 566.535156 678.273438 567.929688 678.273438 C 569.347656 678.273438 570.765625 677.726562 571.835938 676.644531 L 585.550781 662.777344 L 599.261719 676.644531 C 600.335938 677.730469 601.75 678.273438 603.167969 678.273438 C 604.566406 678.273438 605.960938 677.746094 607.03125 676.6875 C 609.191406 674.554688 609.207031 671.078125 607.074219 668.917969 L 593.28125 654.957031 L 607.074219 640.996094 C 609.210938 638.839844 609.191406 635.359375 607.03125 633.230469 C 604.867188 631.085938 601.394531 631.117188 599.261719 633.273438 L 585.550781 647.140625 L 571.835938 633.273438 C 569.703125 631.109375 566.226562 631.089844 564.066406 633.230469 C 561.90625 635.359375 561.890625 638.839844 564.023438 640.996094 L 577.820312 654.957031 L 564.023438 668.917969 C 561.890625 671.078125 561.914062 674.5625 564.066406 676.6875 Z M 564.066406 676.6875 " fill-opacity="1" fill-rule="nonzero"/><path fill="#0c2443" d="M 691.269531 636.695312 L 761.742188 636.695312 C 764.777344 636.695312 767.234375 634.238281 767.234375 631.203125 C 767.234375 628.164062 764.777344 625.707031 761.742188 625.707031 L 691.269531 625.707031 C 688.230469 625.707031 685.773438 628.164062 685.773438 631.203125 C 685.773438 634.238281 688.230469 636.695312 691.269531 636.695312 Z M 691.269531 636.695312 " fill-opacity="1" fill-rule="nonzero"/><path fill="#0c2443" d="M 691.269531 672.335938 L 761.742188 672.335938 C 764.777344 672.335938 767.234375 669.878906 767.234375 666.839844 C 767.234375 663.804688 764.777344 661.347656 761.742188 661.347656 L 691.269531 661.347656 C 688.230469 661.347656 685.773438 663.804688 685.773438 666.839844 C 685.773438 669.878906 688.230469 672.335938 691.269531 672.335938 Z M 691.269531 672.335938 " fill-opacity="1" fill-rule="nonzero"/><path fill="#0c2443" d="M 491.957031 755.933594 C 491.957031 758.972656 494.414062 761.429688 497.449219 761.429688 L 667.769531 761.429688 C 670.808594 761.429688 673.261719 758.972656 673.261719 755.933594 C 673.261719 752.894531 670.808594 750.441406 667.769531 750.441406 L 497.449219 750.441406 C 494.414062 750.441406 491.957031 752.894531 491.957031 755.933594 Z M 491.957031 755.933594 " fill-opacity="1" fill-rule="nonzero"/><path fill="#0c2443" d="M 667.769531 792.015625 L 532.691406 792.015625 C 529.652344 792.015625 527.195312 794.46875 527.195312 797.507812 C 527.195312 800.546875 529.652344 803.003906 532.691406 803.003906 L 667.769531 803.003906 C 670.808594 803.003906 673.261719 800.546875 673.261719 797.507812 C 673.261719 794.46875 670.808594 792.015625 667.769531 792.015625 Z M 667.769531 792.015625 " fill-opacity="1" fill-rule="nonzero"/><path fill="#0c2443" d="M 708.886719 857.355469 L 497.449219 857.355469 C 494.414062 857.355469 491.957031 859.8125 491.957031 862.851562 C 491.957031 865.890625 494.414062 868.34375 497.449219 868.34375 L 708.882812 868.34375 C 711.921875 868.34375 714.375 865.890625 714.375 862.851562 C 714.375 859.8125 711.921875 857.355469 708.886719 857.355469 Z M 708.886719 857.355469 " fill-opacity="1" fill-rule="nonzero"/><path fill="#0c2443" d="M 1014.285156 827.65625 L 926.1875 827.65625 C 923.148438 827.65625 920.691406 830.109375 920.691406 833.148438 C 920.691406 836.1875 923.148438 838.644531 926.1875 838.644531 L 1014.277344 838.644531 C 1017.316406 838.644531 1019.773438 836.1875 1019.773438 833.148438 C 1019.773438 830.109375 1017.316406 827.65625 1014.285156 827.65625 Z M 1014.285156 827.65625 " fill-opacity="1" fill-rule="nonzero"/><path fill="#0c2443" d="M 1014.285156 863.296875 L 926.1875 863.296875 C 923.148438 863.296875 920.691406 865.75 920.691406 868.789062 C 920.691406 871.828125 923.148438 874.285156 926.1875 874.285156 L 1014.277344 874.285156 C 1017.316406 874.285156 1019.773438 871.828125 1019.773438 868.789062 C 1019.773438 865.75 1017.316406 863.296875 1014.285156 863.296875 Z M 1014.285156 863.296875 " fill-opacity="1" fill-rule="nonzero"/><path fill="#0c2443" d="M 943.015625 763.96875 C 943.101562 763.753906 943.175781 763.527344 943.238281 763.300781 L 946.949219 749.550781 L 996.664062 749.550781 C 999.703125 749.550781 1002.160156 747.09375 1002.160156 744.054688 C 1002.160156 741.019531 999.703125 738.5625 996.664062 738.5625 L 949.914062 738.5625 L 960.863281 697.972656 C 961.65625 695.042969 959.921875 692.027344 956.992188 691.230469 C 954.058594 690.433594 951.046875 692.175781 950.25 695.105469 L 938.53125 738.558594 L 897.285156 738.558594 L 872.585938 688.648438 C 870.023438 681.894531 866.109375 675.960938 861.203125 671.230469 L 861.203125 601.503906 C 861.203125 598.46875 858.746094 596.011719 855.707031 596.011719 C 852.667969 596.011719 850.214844 598.46875 850.214844 601.503906 L 850.214844 663.582031 C 841.609375 659.429688 832.300781 658.703125 824.390625 661.710938 C 808.023438 667.929688 803.765625 687.351562 803.390625 689.285156 L 791.210938 738.566406 L 714.753906 738.566406 C 711.714844 738.566406 709.261719 741.023438 709.261719 744.0625 C 709.261719 747.101562 711.714844 749.554688 714.753906 749.554688 L 788.496094 749.554688 L 781.179688 779.160156 C 779.878906 784.4375 777.476562 788.804688 774.257812 791.789062 C 769.296875 796.382812 762.808594 798.65625 756.421875 797.992188 C 748.1875 797.15625 740.90625 791.597656 737.421875 783.472656 C 736.226562 780.679688 732.988281 779.382812 730.210938 780.59375 C 727.425781 781.789062 726.132812 785.019531 727.332031 787.804688 C 732.386719 799.597656 743.109375 807.683594 755.316406 808.925781 C 756.40625 809.035156 757.5 809.089844 758.59375 809.089844 C 767 809.089844 775.277344 805.808594 781.730469 799.847656 C 786.53125 795.398438 790.035156 789.15625 791.855469 781.796875 L 799.820312 749.554688 L 850.222656 749.554688 L 850.222656 886.613281 C 850.222656 889.652344 852.679688 892.105469 855.71875 892.105469 C 858.757812 892.105469 861.210938 889.652344 861.210938 886.613281 L 861.210938 749.550781 L 890.492188 749.550781 L 897.621094 763.96875 C 901.445312 773.246094 910.351562 779.246094 920.324219 779.246094 C 930.296875 779.246094 939.191406 773.246094 943.015625 763.96875 Z M 802.53125 738.5625 L 814.117188 691.664062 C 814.238281 691.03125 817.28125 676.164062 828.296875 671.980469 C 833.714844 669.917969 840.429688 670.683594 846.679688 674.0625 C 847.925781 674.738281 849.066406 675.597656 850.21875 676.445312 L 850.21875 738.5625 Z M 861.203125 738.5625 L 861.203125 690.246094 C 861.640625 691.179688 862.144531 692.042969 862.527344 693.039062 L 885.046875 738.5625 Z M 920.3125 768.257812 C 914.8125 768.257812 909.894531 764.933594 907.617188 759.441406 L 902.71875 749.550781 L 935.566406 749.550781 L 932.722656 760.078125 C 930.539062 765.054688 925.703125 768.257812 920.3125 768.257812 Z M 920.3125 768.257812 " fill-opacity="1" fill-rule="nonzero"/></svg>